Coordinates
version=1
nRows=9
nColumns=24
inDegrees=yes

Units are S.I. units (second, meters, Newtons, ...)
Angles are in degrees.

endheader
time	pelvis_tilt	pelvis_list	pelvis_rotation	pelvis_tx	pelvis_ty	pelvis_tz	hip_flexion_r	hip_adduction_r	hip_rotation_r	knee_angle_r	ankle_angle_r	subtalar_angle_r	mtp_angle_r	hip_flexion_l	hip_adduction_l	hip_rotation_l	knee_angle_l	ankle_angle_l	subtalar_angle_l	mtp_angle_l	lumbar_extension	lumbar_bending	lumbar_rotation
      7.07000000	      7.96671755	      1.10048475	      2.70190029	     -0.23346170	      0.75186657	      0.29723618	     -3.17398752	      6.57201061	      3.09585369	     -6.08750703	     12.66541025	    -14.27001814	      0.00000000	     16.23369580	     -1.14622943	     -3.20796769	    -66.90169399	     -4.07519264	    -18.88642323	      0.00000000	    -27.29183918	     -2.84753449	     -7.73303203
      7.08000000	      7.75849312	      1.26281246	      1.96301659	     -0.22404004	      0.75226851	      0.29938427	     -4.05801803	      6.44551172	      3.43053604	     -5.55603244	     13.28492289	    -13.60403383	      0.00000000	     17.53455310	     -0.83629688	     -3.72030321	    -65.43484358	     -1.83418548	    -17.79572953	      0.00000000	    -27.20615550	     -3.44129126	     -7.11351016
      7.09000000	      7.58788597	      1.42023871	      1.23465422	     -0.21466994	      0.75252146	      0.30145272	     -4.95015326	      6.30934368	      3.79696078	     -5.06861872	     13.88913974	    -13.00129784	      0.00000000	     18.65128747	     -0.54130935	     -4.19789429	    -63.58256917	      0.02322820	    -17.05248196	      0.00000000	    -27.17208452	     -4.00315687	     -6.52783858
      7.10000000	      7.41022017	      1.57456053	      0.48997052	     -0.20533401	      0.75257959	      0.30345734	     -5.77338525	      6.16211796	      4.28300330	     -4.68345274	     14.50538852	    -12.60221922	      0.00000000	     19.60602566	     -0.24892266	     -4.64560189	    -61.31351419	      1.36285250	    -16.89777251	      0.00000000	    -27.13060607	     -4.55226903	     -5.94995954
      7.11000000	      7.34058106	      1.65068463	     -0.19835720	     -0.19598144	      0.75255964	      0.30533686	     -6.68931197	      6.08414524	      4.65452916	     -4.33211006	     15.05684568	    -12.07590763	      0.00000000	     20.28709121	     -0.05127064	     -5.01494995	    -58.68284253	      2.70731155	    -16.59809795	      0.00000000	    -27.21217302	     -4.97045799	     -5.46513533
      7.12000000	      7.22523110	      1.70165471	     -0.91876458	     -0.18662992	      0.75230495	      0.30715285	     -7.47050659	      6.01782353	      5.13189197	     -4.13378730	     15.66684546	    -11.69328430	      0.00000000	     20.82592774	      0.13180492	     -5.33786473	    -55.63068480	      3.57112495	    -16.82076863	      0.00000000	    -27.23088407	     -5.35279426	     -4.97375902
      7.13000000	      7.10840690	      1.70181360	     -1.63960231	     -0.17723491	      0.75186124	      0.30891307	     -8.19815384	      5.99587405	      5.65225575	     -4.03410850	     16.31601403	    -11.41223363	      0.00000000	     21.17273462	      0.25752657	     -5.60734869	    -52.17645495	      4.16864342	    -17.22098121	      0.00000000	    -27.22838763	     -5.67142676	     -4.49166853
      7.14000000	      7.08181761	      1.69765383	     -2.32223858	     -0.16775183	      0.75137400	      0.31054389	     -9.00152418	      5.96342561	      6.09103845	     -3.98419941	     16.92591468	    -11.09677891	      0.00000000	     21.18200320	      0.44401371	     -5.71118343	    -48.24259332	      4.39993525	    -18.02632140	      0.00000000	    -27.32006739	     -5.94919526	     -4.15142783
      7.15000000	      6.99534648	      1.63389136	     -2.99247571	     -0.15815769	      0.75064239	      0.31212607	     -9.71807381	      5.99017037	      6.54731217	     -3.99528399	     17.58833958	    -10.85756513	      0.00000000	     21.04148974	      0.58687323	     -5.68211893	    -43.90388031	      4.35649229	    -18.90111173	      0.00000000	    -27.30659427	     -6.15341252	     -3.76812814
